<svg id="Componente_10_1" data-name="Componente 10 – 1" xmlns="http://www.w3.org/2000/svg" width="267.911" height="85.413" viewBox="0 0 267.911 85.413">
  <g id="Grupo_225" data-name="Grupo 225">
    <circle id="Elipse_16" data-name="Elipse 16" cx="42.707" cy="42.707" r="42.707"/>
    <path id="Trazado_319" data-name="Trazado 319" d="M77.091,42.74a13.114,13.114,0,0,0-.928-3.515,7.9,7.9,0,0,0-.6-.995c-2.785-5.239-15.451-2.918-21.353-1.79-5.968,1.127-18.17,1.393-18.17,1.393-.4,0-.8-.066-1.127-.066a39.562,39.562,0,0,1-6.83-1.061c-.995-.265-1.989-.663-2.984-.995a.943.943,0,0,0,.133.4c.464,1.194.995,2.321,1.459,3.448a3.287,3.287,0,0,0,1.923,1.724,25.859,25.859,0,0,0,4.443,1.194v16.38a21.638,21.638,0,0,0,1.326,7.427,19.225,19.225,0,0,0,3.647,6.167,17.3,17.3,0,0,0,5.57,4.244,15.684,15.684,0,0,0,6.9,1.592h.265a15.684,15.684,0,0,0,6.9-1.592,18.048,18.048,0,0,0,5.57-4.244,19.225,19.225,0,0,0,3.647-6.167A21.638,21.638,0,0,0,68.2,58.854V46.387h-.265a1.836,1.836,0,0,0-.6.066c-.2.066-.133,0-.066,0H67.21a2.872,2.872,0,0,0-.332.066c-.2.066-.464.133-.663.2a.232.232,0,0,0-.133.066c-.066.066-.2.066-.265.133a2.883,2.883,0,0,0-.464.265c-.2.133-.332.2-.531.332l-.2.2c.265-.2,0,0-.066.066a10.2,10.2,0,0,0-.8.862h0l-.066.066c-.066.066-.133.2-.2.265a1.333,1.333,0,0,0-.265.531c-.066.2-.2.4-.265.6-.066.066-.066.2-.133.265,0,.066-.066.066-.066.133l-.4,1.194c0,.133-.066.2-.066.332v6.83c0,7.427-5.173,13.462-11.539,13.462H50.5c-6.366.066-11.539-6.035-11.539-13.462V43.138c1.658.066,3.382.066,5.04.066,4.509-.066,9.019-.531,13.462-.862A94.77,94.77,0,0,1,69.73,42.01a21.049,21.049,0,0,1,5.371.8,18.9,18.9,0,0,1,2.056.8C77.157,43.27,77.091,43.005,77.091,42.74Z" transform="translate(-8.455 -11.771)" fill="#fff"/>
  </g>
  <g id="Grupo_230" data-name="Grupo 230" transform="translate(108.424 29.643)">
    <g id="Grupo_226" data-name="Grupo 226">
      <path id="Trazado_320" data-name="Trazado 320" d="M166.749,46.823H163.5V44.9h8.82v1.923H169.07v8.223h-2.321V46.823Z" transform="translate(-163.5 -44.767)" fill="#010202"/>
      <path id="Trazado_321" data-name="Trazado 321" d="M186.124,52.858h-4.708l-.928,2.188H178.1L182.609,44.9h2.321l4.509,10.146h-2.454Zm-.729-1.79L183.8,47.155l-1.592,3.913Z" transform="translate(-168.418 -44.767)" fill="#010202"/>
      <path id="Trazado_322" data-name="Trazado 322" d="M205.9,45.364a3.639,3.639,0,0,1,1.525,1.26,3.7,3.7,0,0,1,.531,1.989,3.626,3.626,0,0,1-.531,1.923A3.213,3.213,0,0,1,205.9,51.8a6.287,6.287,0,0,1-2.321.464h-2.056v2.785H199.2V44.9h4.377A5.188,5.188,0,0,1,205.9,45.364Zm-.862,4.509a1.538,1.538,0,0,0,.531-1.326,1.744,1.744,0,0,0-.531-1.326,2.4,2.4,0,0,0-1.592-.464h-1.923v3.515h1.923A2.067,2.067,0,0,0,205.036,49.874Z" transform="translate(-175.526 -44.767)" fill="#010202"/>
      <path id="Trazado_323" data-name="Trazado 323" d="M222.324,52.858h-4.708l-.928,2.188H214.3L218.809,44.9h2.321l4.509,10.146h-2.454Zm-.729-1.79L220,47.155l-1.592,3.913Z" transform="translate(-180.612 -44.767)" fill="#010202"/>
      <path id="Trazado_324" data-name="Trazado 324" d="M235.891,54.88a5.629,5.629,0,0,1-1.79-.862l.8-1.79a5.313,5.313,0,0,0,3.316,1.061,2.861,2.861,0,0,0,1.459-.265.866.866,0,0,0,.464-.8.646.646,0,0,0-.265-.6,3.6,3.6,0,0,0-.729-.4c-.265-.066-.663-.2-1.194-.332-.8-.2-1.393-.4-1.923-.531a3.294,3.294,0,0,1-1.26-.862,2.42,2.42,0,0,1-.531-1.592,2.644,2.644,0,0,1,.464-1.592,3.2,3.2,0,0,1,1.459-1.127,6.425,6.425,0,0,1,2.387-.4,9.469,9.469,0,0,1,1.923.2,5.741,5.741,0,0,1,1.592.663l-.729,1.79a5.571,5.571,0,0,0-2.785-.8,2.787,2.787,0,0,0-1.459.332.9.9,0,0,0-.464.862.862.862,0,0,0,.531.8,8.131,8.131,0,0,0,1.658.531c.8.2,1.393.4,1.923.531a3.294,3.294,0,0,1,1.26.862,2.42,2.42,0,0,1,.531,1.592,2.644,2.644,0,0,1-.464,1.592A3.2,3.2,0,0,1,240.6,54.88a6.425,6.425,0,0,1-2.387.4A13.048,13.048,0,0,1,235.891,54.88Z" transform="translate(-187.282 -44.734)" fill="#010202"/>
      <path id="Trazado_325" data-name="Trazado 325" d="M267.188,55.178l-1.194-1.127a5.605,5.605,0,0,1-3.382,1.127,6.251,6.251,0,0,1-1.989-.332,3.76,3.76,0,0,1-1.393-.995,2.317,2.317,0,0,1-.531-1.459,2.9,2.9,0,0,1,.531-1.658,5.586,5.586,0,0,1,1.724-1.393,3.386,3.386,0,0,1-.8-1.061,3.121,3.121,0,0,1-.265-1.061,2.391,2.391,0,0,1,.4-1.326,2.459,2.459,0,0,1,1.127-.862,4.344,4.344,0,0,1,1.658-.332,3.132,3.132,0,0,1,2.122.663,2.051,2.051,0,0,1,.8,1.724,2.081,2.081,0,0,1-.464,1.393,5.071,5.071,0,0,1-1.525,1.194l1.857,1.724a8.945,8.945,0,0,0,.531-1.592l1.79.6a7.387,7.387,0,0,1-.928,2.321l1.194,1.127Zm-2.52-2.387-2.454-2.321a3.248,3.248,0,0,0-.995.8,1.333,1.333,0,0,0-.265.862,1.076,1.076,0,0,0,.464.928,2.612,2.612,0,0,0,1.326.332A3.3,3.3,0,0,0,264.668,52.79Zm-2.387-6.3a.851.851,0,0,0-.265.663,1.936,1.936,0,0,0,.133.6c.133.2.332.4.6.729a3.646,3.646,0,0,0,1.061-.729.95.95,0,0,0,.265-.663.646.646,0,0,0-.265-.6,1.191,1.191,0,0,0-.729-.2A.827.827,0,0,0,262.281,46.49Z" transform="translate(-195.569 -44.7)" fill="#010202"/>
      <path id="Trazado_326" data-name="Trazado 326" d="M294.091,53.123V54.98H286.2V44.9h7.692v1.857h-5.305v2.188H293.3V50.8h-4.708v2.321Z" transform="translate(-204.832 -44.767)" fill="#010202"/>
      <path id="Trazado_327" data-name="Trazado 327" d="M312.384,44.9V55.046h-1.923l-5.04-6.167v6.167H303.1V44.9h1.923l5.04,6.167V44.9Z" transform="translate(-210.525 -44.767)" fill="#010202"/>
      <path id="Trazado_328" data-name="Trazado 328" d="M331.975,44.9,327.6,55.046h-2.321L320.9,44.9h2.52l3.117,7.228,3.117-7.228Z" transform="translate(-216.521 -44.767)" fill="#010202"/>
      <path id="Trazado_329" data-name="Trazado 329" d="M346.524,52.858h-4.708l-.928,2.188H338.5L343.009,44.9h2.321l4.509,10.146h-2.387Zm-.729-1.79L344.2,47.155l-1.592,3.913Z" transform="translate(-222.45 -44.767)" fill="#010202"/>
      <path id="Trazado_330" data-name="Trazado 330" d="M360.09,54.88a5.63,5.63,0,0,1-1.79-.862l.8-1.79a5.313,5.313,0,0,0,3.316,1.061,2.862,2.862,0,0,0,1.459-.265.866.866,0,0,0,.464-.8.646.646,0,0,0-.265-.6,3.6,3.6,0,0,0-.729-.4c-.265-.066-.663-.2-1.194-.332-.8-.2-1.393-.4-1.923-.531a3.294,3.294,0,0,1-1.26-.862,2.42,2.42,0,0,1-.531-1.592,2.644,2.644,0,0,1,.464-1.592,3.2,3.2,0,0,1,1.459-1.127,6.425,6.425,0,0,1,2.387-.4,9.469,9.469,0,0,1,1.923.2,5.741,5.741,0,0,1,1.592.663l-.729,1.79a5.571,5.571,0,0,0-2.785-.8,2.787,2.787,0,0,0-1.459.332.9.9,0,0,0-.464.862.862.862,0,0,0,.531.8,8.13,8.13,0,0,0,1.658.531c.8.2,1.393.4,1.923.531a3.294,3.294,0,0,1,1.26.862,2.42,2.42,0,0,1,.531,1.592,2.644,2.644,0,0,1-.464,1.592A3.2,3.2,0,0,1,364.8,54.88a6.425,6.425,0,0,1-2.387.4A13.048,13.048,0,0,1,360.09,54.88Z" transform="translate(-229.119 -44.734)" fill="#010202"/>
      <path id="Trazado_331" data-name="Trazado 331" d="M383.391,53.123V54.98H375.5V44.9h7.692v1.857h-5.305v2.188H382.6V50.8h-4.708v2.321Z" transform="translate(-234.913 -44.767)" fill="#010202"/>
      <path id="Trazado_332" data-name="Trazado 332" d="M393.09,54.88a5.63,5.63,0,0,1-1.79-.862l.8-1.79a5.313,5.313,0,0,0,3.316,1.061,2.861,2.861,0,0,0,1.459-.265.866.866,0,0,0,.464-.8.646.646,0,0,0-.265-.6,3.6,3.6,0,0,0-.729-.4c-.265-.066-.663-.2-1.194-.332-.8-.2-1.393-.4-1.923-.531a3.3,3.3,0,0,1-1.26-.862,2.42,2.42,0,0,1-.531-1.592,2.644,2.644,0,0,1,.464-1.592,3.2,3.2,0,0,1,1.459-1.127,6.425,6.425,0,0,1,2.387-.4,9.469,9.469,0,0,1,1.923.2,5.741,5.741,0,0,1,1.592.663l-.729,1.79a5.571,5.571,0,0,0-2.785-.8,2.787,2.787,0,0,0-1.459.332.9.9,0,0,0-.464.862.862.862,0,0,0,.53.8,8.131,8.131,0,0,0,1.658.531c.8.2,1.393.4,1.923.531a3.294,3.294,0,0,1,1.26.862,2.42,2.42,0,0,1,.531,1.592,2.644,2.644,0,0,1-.464,1.592A3.2,3.2,0,0,1,397.8,54.88a6.425,6.425,0,0,1-2.387.4A13.048,13.048,0,0,1,393.09,54.88Z" transform="translate(-240.236 -44.734)" fill="#010202"/>
    </g>
    <g id="Grupo_229" data-name="Grupo 229" transform="translate(0 21.287)">
      <g id="Grupo_227" data-name="Grupo 227" transform="translate(0 7.626)">
        <rect id="Rectángulo_186" data-name="Rectángulo 186" width="19.298" height="0.862" fill="#010202"/>
      </g>
      <g id="Grupo_228" data-name="Grupo 228" transform="translate(29.842)">
        <path id="Trazado_333" data-name="Trazado 333" d="M218.513,91.29l-3.448-4.841a12.149,12.149,0,0,1-1.393.133h-4.111V91.29H208.5V76.9h5.173a6.358,6.358,0,0,1,4.244,1.26,4.511,4.511,0,0,1,1.525,3.581,4.427,4.427,0,0,1-.862,2.852,4.582,4.582,0,0,1-2.52,1.658l3.581,5.04h-1.127Zm-4.841-5.637a5.415,5.415,0,0,0,3.515-.995,3.611,3.611,0,0,0,1.194-2.918,3.7,3.7,0,0,0-1.194-2.918,5.415,5.415,0,0,0-3.515-.995h-4.111v7.825Z" transform="translate(-208.5 -76.834)"/>
        <path id="Trazado_334" data-name="Trazado 334" d="M235.5,76.9h1.061V91.29H235.5Z" transform="translate(-217.595 -76.834)"/>
        <path id="Trazado_335" data-name="Trazado 335" d="M250.847,90.461a6.8,6.8,0,0,1-2.653-2.653,7.43,7.43,0,0,1,0-7.427,7.269,7.269,0,0,1,2.653-2.653,7.352,7.352,0,0,1,3.846-.928,8.045,8.045,0,0,1,3.846.928,6.641,6.641,0,0,1,2.653,2.586,7.755,7.755,0,0,1,.995,3.714,6.914,6.914,0,0,1-.995,3.714,7.093,7.093,0,0,1-2.653,2.586,7.352,7.352,0,0,1-3.846.928A8,8,0,0,1,250.847,90.461Zm7.1-.862a6.309,6.309,0,0,0,2.321-2.255,6.786,6.786,0,0,0,.862-3.249,6.117,6.117,0,0,0-.862-3.249,5.44,5.44,0,0,0-2.321-2.255,6.735,6.735,0,0,0-3.249-.8,6.553,6.553,0,0,0-3.249.8,6.309,6.309,0,0,0-2.321,2.255,6.787,6.787,0,0,0-.862,3.249,6.117,6.117,0,0,0,.862,3.249,5.44,5.44,0,0,0,2.321,2.255,7.032,7.032,0,0,0,6.5,0Z" transform="translate(-221.536 -76.8)"/>
        <path id="Trazado_336" data-name="Trazado 336" d="M277.258,90.926A4.535,4.535,0,0,1,275.6,89.4l.663-.729A3.771,3.771,0,0,0,277.656,90a3.285,3.285,0,0,0,1.79.464,2.53,2.53,0,0,0,2.122-.862,4.009,4.009,0,0,0,.729-2.586V77.928h-5.305V77h6.366V87.146a4.648,4.648,0,0,1-.995,3.249,3.76,3.76,0,0,1-2.918,1.061A4.846,4.846,0,0,1,277.258,90.926Z" transform="translate(-231.103 -76.867)"/>
        <path id="Trazado_337" data-name="Trazado 337" d="M306.54,87.245h-8.356l-1.857,4.045H295.2l6.631-14.39h1.061l6.631,14.39H308.33Zm-.4-.862-3.78-8.289-3.78,8.289Z" transform="translate(-237.705 -76.834)"/>
      </g>
    </g>
  </g>
</svg>
